<svg version="1.1" id="Layer_1" xmlns="http://www.w3.org/2000/svg" xmlns:xlink="http://www.w3.org/1999/xlink" x="0px" y="0px"
	 width="100%" viewBox="0 0 889 1280" enable-background="new 0 0 889 1280" xml:space="preserve">
<path fill="#000000" opacity="1.000000" stroke="none" 
	d="
M432.000000,1281.000000 
	C288.000000,1281.000000 144.500000,1281.000000 1.000000,1281.000000 
	C1.000000,854.333313 1.000000,427.666656 1.000000,1.000000 
	C297.333344,1.000000 593.666687,1.000000 890.000000,1.000000 
	C890.000000,427.666656 890.000000,854.333313 890.000000,1281.000000 
	C737.500000,1281.000000 585.000000,1281.000000 432.000000,1281.000000 
M221.994003,315.969421 
	C221.994003,315.969421 221.929169,315.898682 221.357666,316.192963 
	C220.613068,317.475494 219.868484,318.757996 218.560654,320.445557 
	C213.085831,329.649933 208.510590,339.216095 206.236038,350.259094 
	C206.211395,350.842010 206.186752,351.424957 205.839691,352.783142 
	C205.410110,361.513855 204.980530,370.244537 204.301056,379.648529 
	C204.392609,380.107910 204.484161,380.567322 204.329468,381.814728 
	C205.935608,394.207336 207.541733,406.599945 209.071014,419.715973 
	C209.322495,420.602966 209.573975,421.489990 209.811050,423.177185 
	C211.140945,429.680237 212.420914,436.194122 213.826767,442.680695 
	C214.347031,445.081177 214.199051,446.705170 211.931564,448.526764 
	C205.533981,453.666229 201.283569,460.412292 199.730835,468.548889 
	C196.288284,486.588593 199.297836,503.889130 206.455734,520.542664 
	C210.075165,528.963684 215.592514,535.932800 223.798309,540.526062 
	C231.154861,544.643921 236.036835,543.881958 240.967834,536.914368 
	C245.148071,531.007690 248.808258,524.732910 252.712372,518.618530 
	C253.815826,522.781494 254.850952,526.964172 256.041626,531.102051 
	C257.280548,535.407593 258.617462,539.686890 260.001129,543.948547 
	C276.633514,595.176208 299.635132,642.481323 341.615265,678.392273 
	C356.437408,691.071594 373.133362,698.227478 392.637207,696.784180 
	C408.679504,695.597046 421.753937,687.398682 433.451874,676.711731 
	C446.550873,664.744751 455.628937,650.068604 464.141724,634.662598 
	C478.644043,608.416992 489.147644,580.839478 495.276794,551.548340 
	C496.577271,545.333496 497.593231,539.059143 498.581024,533.679626 
	C505.946533,536.771606 512.701538,540.428528 519.915649,542.432007 
	C529.353699,545.053040 535.276611,541.889038 538.648254,533.074097 
	C546.720642,511.969482 552.452087,490.364075 549.551880,467.445801 
	C548.688293,460.621185 547.917297,453.415741 540.167297,449.270752 
	C539.573364,449.119781 538.979492,448.968811 538.337769,448.068420 
	C542.097046,433.999237 545.856262,419.930023 549.975342,405.302734 
	C551.220154,400.836029 552.474976,396.372070 553.707947,391.902100 
	C556.876282,380.415833 558.044556,368.690460 556.259705,356.935577 
	C552.295715,330.828949 537.227539,312.299072 515.249573,298.835266 
	C507.741974,294.236053 499.995453,290.026886 492.172180,285.532715 
	C501.646729,280.704163 511.205139,276.484558 522.036377,277.235443 
	C525.573547,277.480652 526.242432,275.281433 527.043762,273.004211 
	C528.064026,270.104858 525.962219,269.327606 523.761719,268.577393 
	C521.573486,267.831360 519.545776,266.440186 517.317444,266.015686 
	C505.658325,263.794495 494.029388,260.992554 482.251465,259.935272 
	C470.418182,258.872986 458.353851,258.818451 446.518158,259.823151 
	C436.249573,260.694855 426.159210,263.665833 415.616028,265.028259 
	C403.749878,260.667419 391.883759,256.306610 379.551910,251.531342 
	C377.985901,251.124359 376.419922,250.717392 374.258270,250.038406 
	C372.500061,249.713074 370.741882,249.387741 368.492767,248.666672 
	C367.669586,248.532959 366.846405,248.399231 365.240051,247.970856 
	C360.336334,247.382660 355.446564,246.484497 350.526337,246.262619 
	C333.709930,245.504349 317.319458,248.583893 300.327972,252.115097 
	C299.879395,252.197250 299.430817,252.279404 298.267914,252.190247 
	C296.827240,252.749619 295.386566,253.308975 293.882690,253.892868 
	C294.990417,258.877991 297.453217,261.148743 302.229370,261.025696 
	C305.141510,260.950684 308.071075,261.552185 311.494324,262.003357 
	C311.664764,261.964508 311.835236,261.925629 312.680237,262.199982 
	C313.400879,262.338165 314.121552,262.476318 315.303375,262.953796 
	C315.869629,262.954956 316.435883,262.956146 317.593170,263.376099 
	C318.635376,263.702606 319.677582,264.029083 321.564880,264.620361 
	C316.798676,265.708160 312.911285,266.595367 308.486115,267.338043 
	C307.995544,267.576782 307.504974,267.815552 306.311829,268.009308 
	C305.882019,268.162781 305.452209,268.316223 304.349792,268.505859 
	C303.289429,268.826233 302.229065,269.146637 300.474945,269.636414 
	C293.319824,272.153046 286.164703,274.669647 278.446930,277.179230 
	C277.974854,277.481934 277.502747,277.784637 276.315125,278.066925 
	C274.207275,279.036926 272.099426,280.006927 269.342377,280.970215 
	C268.580414,281.370056 267.818451,281.769897 266.363037,282.236481 
	C264.579559,283.095367 262.785187,283.932495 261.014343,284.816620 
	C246.886337,291.870331 233.713837,300.180481 223.440170,313.298370 
	C222.927658,314.178894 222.415161,315.059448 221.994003,315.969421 
M645.270020,884.014038 
	C646.565613,878.024780 647.861206,872.035522 649.141113,866.118958 
	C628.638245,855.002563 586.680908,851.416565 568.187683,859.210754 
	C571.448914,873.737244 574.722107,888.305969 577.990051,902.875854 
	C583.992981,929.639343 589.962280,956.410583 596.081055,983.147583 
	C596.397827,984.531860 597.953674,986.673706 598.977051,986.699402 
	C615.107544,987.105225 631.097046,985.735718 646.137878,982.631531 
	C644.655151,965.949036 642.216736,949.768494 642.058105,933.565613 
	C641.899353,917.345337 644.018250,901.102722 645.270020,884.014038 
M562.599243,1083.875488 
	C579.848083,1090.844360 597.695068,1094.204468 616.764709,1093.440674 
	C608.977112,1058.716431 601.350830,1024.711060 593.921936,991.586182 
	C575.325012,988.769470 557.314636,986.041626 538.979248,983.264526 
	C536.855835,1007.287415 530.272583,1030.725708 515.909302,1051.837524 
	C528.984619,1065.759521 544.316467,1076.275513 562.599243,1083.875488 
M253.798798,877.553101 
	C245.972427,859.574036 242.063065,840.924500 243.445282,821.202393 
	C243.974335,813.653748 239.255417,807.568481 232.132950,806.291687 
	C223.029205,804.659729 214.201141,805.682251 206.315964,811.131226 
	C200.193314,815.362183 198.551132,819.986816 201.532974,826.803040 
	C210.777359,847.934692 212.289764,870.225464 211.822937,892.835510 
	C211.441605,911.305420 207.116974,928.684509 197.504211,944.638794 
	C190.041672,957.024353 182.645325,969.453857 175.475723,982.010071 
	C171.867264,988.329651 168.000610,994.697876 165.716949,1001.533936 
	C161.835999,1013.151306 165.499527,1020.801514 176.614792,1025.991577 
	C180.916702,1028.000244 185.726303,1030.036987 190.328140,1030.092041 
	C208.940735,1030.314697 227.805527,1031.558594 246.121155,1029.069580 
	C270.607178,1025.741943 294.839691,1019.979065 318.860016,1013.977051 
	C337.660156,1009.279480 352.839539,998.337524 363.446411,981.696472 
	C374.398041,964.514709 370.257080,951.153381 351.560059,943.395447 
	C350.179901,942.822754 348.781464,942.288086 347.369720,941.798584 
	C334.017731,937.169556 320.689545,932.469482 307.299438,927.953003 
	C282.024475,919.427673 265.938660,901.106262 253.798798,877.553101 
M656.317505,869.026062 
	C655.313599,868.597778 654.309692,868.169556 652.856812,867.549744 
	C643.270386,905.703918 643.363953,943.434509 651.071228,981.667725 
	C676.598755,975.766663 699.616394,966.365479 719.650024,950.311951 
	C722.444153,948.072937 722.926453,946.144958 721.718445,942.806824 
	C709.776306,909.805420 687.951599,885.584839 656.317505,869.026062 
M652.110535,1002.195679 
	C650.725525,996.944763 649.340515,991.693909 648.137817,987.134155 
	C631.013306,988.645752 614.529541,990.100830 597.859741,991.572327 
	C605.428162,1025.318848 613.025940,1059.196289 620.674194,1093.298706 
	C644.538330,1091.426758 665.718628,1083.890137 684.463501,1069.600464 
	C665.417847,1039.745728 661.296753,1031.181885 652.110535,1002.195679 
M519.840698,883.336304 
	C518.261353,884.767944 516.682007,886.199585 515.981567,886.834534 
	C521.175476,897.912659 526.733582,908.153381 530.862854,918.941040 
	C537.603027,936.549377 539.706055,955.060974 539.395935,973.884827 
	C539.368591,975.543091 540.603516,978.390442 541.799500,978.724182 
	C558.328064,983.336609 575.175537,986.048645 592.793091,986.471252 
	C583.263245,943.999207 573.821594,901.920288 564.376221,859.824890 
	C548.514160,863.809753 534.372009,871.286438 519.840698,883.336304 
M689.398010,1065.713013 
	C728.975159,1031.978516 733.584717,980.691772 723.613281,952.007202 
	C702.665833,969.402283 678.245728,979.389709 651.731018,985.558838 
	C653.209595,991.100403 654.483459,996.252014 655.960388,1001.344788 
	C662.400879,1023.551941 671.603394,1044.480225 685.094482,1063.369507 
	C685.950256,1064.567749 687.578369,1065.214233 689.398010,1065.713013 
M497.881927,1027.632202 
	C502.702850,1034.710083 507.523743,1041.787964 512.812012,1049.551880 
	C527.066467,1027.962524 533.434998,1005.346191 535.090210,982.605042 
	C516.689880,974.168640 499.273773,966.183472 481.996368,958.261902 
	C480.033173,982.283081 485.289825,1005.410522 497.881927,1027.632202 
M490.840546,957.620972 
	C504.698700,965.900574 519.371033,972.280151 535.501526,977.079590 
	C536.189270,945.650757 530.327637,916.698486 512.082153,890.390808 
	C497.920227,905.859070 488.712036,923.060303 484.204681,942.772705 
	C482.063385,952.137451 482.078033,952.140808 490.840546,957.620972 
z"/>
<path fill="#FDFDFD" opacity="1.000000" stroke="none" 
	d="
M309.023926,267.482605 
	C312.911285,266.595367 316.798676,265.708160 321.564880,264.620361 
	C319.677582,264.029083 318.635376,263.702606 317.245911,262.847839 
	C316.213196,262.417877 315.527679,262.516205 314.842194,262.614502 
	C314.121552,262.476318 313.400879,262.338165 312.324585,261.805725 
	C311.818726,261.158691 311.668549,260.905914 311.518372,260.653107 
	C311.343201,261.052002 311.168030,261.450897 310.992828,261.849792 
	C308.071075,261.552185 305.141510,260.950684 302.229370,261.025696 
	C297.453217,261.148743 294.990417,258.877991 293.882690,253.892868 
	C295.386566,253.308975 296.827240,252.749619 298.673523,252.543869 
	C299.722961,252.669022 300.366760,252.440552 301.010590,252.212067 
	C317.319458,248.583893 333.709930,245.504349 350.526337,246.262619 
	C355.446564,246.484497 360.336334,247.382660 365.768005,248.366150 
	C367.191895,248.861771 368.087769,248.962097 368.983673,249.062408 
	C370.741882,249.387741 372.500061,249.713074 374.680664,250.521530 
	C376.741241,251.318359 378.379425,251.632065 380.017609,251.945770 
	C391.883759,256.306610 403.749878,260.667419 415.429169,265.501831 
	C415.218353,267.436432 415.194397,268.897430 415.069489,270.661743 
	C411.980530,269.947754 408.992554,268.930420 405.965393,267.623474 
	C405.275848,267.250397 404.625427,267.166962 403.592102,267.102539 
	C396.813538,264.933594 390.417847,262.745575 383.978516,260.260468 
	C382.810516,258.748108 382.114777,255.521942 379.566681,259.102173 
	C376.117859,258.284698 373.067413,257.482239 370.013306,256.361389 
	C369.742584,255.507950 369.475555,254.972885 369.208496,254.437805 
	C368.795288,254.997467 368.382080,255.557129 367.567474,256.121246 
	C364.780548,255.684982 362.395050,255.244247 359.961182,254.514099 
	C359.249786,254.226608 358.586700,254.228531 357.459076,254.266876 
	C345.630096,254.857101 334.265656,255.410934 322.641296,255.963470 
	C322.172699,256.212311 321.964020,256.462463 321.755341,256.712616 
	C322.146179,256.817047 322.536987,256.921478 323.307678,257.022400 
	C327.789307,258.760742 332.009979,260.279022 335.929077,262.364136 
	C337.323334,263.105927 339.149536,265.842468 338.751526,266.591797 
	C337.768799,268.442047 335.813080,270.561188 333.893982,270.991638 
	C325.847015,272.796600 317.562531,273.583374 309.561401,275.544128 
	C289.814728,280.383240 271.337463,288.542267 253.043030,298.063538 
	C251.823120,298.776733 251.006546,299.511200 250.135086,300.163330 
	C250.080200,300.081024 250.233124,300.206665 249.791992,300.145874 
	C247.687500,300.430969 246.024155,300.776886 244.360794,301.122803 
	C244.855957,301.854858 245.351105,302.586945 245.625610,303.601990 
	C231.865067,313.297241 222.655441,326.098206 215.939087,341.113220 
	C215.437958,342.150421 215.270493,343.185852 215.110046,344.601807 
	C214.176361,348.332550 213.235657,351.682800 211.887665,355.032776 
	C210.747879,355.500824 210.015381,355.969116 209.282867,356.437439 
	C210.132233,356.990356 210.981613,357.543274 211.875275,358.426849 
	C211.713898,359.139526 211.508224,359.521545 211.032745,360.031616 
	C210.874527,360.782867 210.986099,361.406036 211.155762,362.475708 
	C210.917358,366.883911 210.140732,370.878906 210.412231,374.801361 
	C211.314255,387.833099 212.445190,400.853851 213.774673,413.849548 
	C214.824631,424.112885 216.296448,434.333069 217.567261,444.463654 
	C220.797226,444.274109 223.393677,444.121735 226.135559,444.199463 
	C226.856766,444.276855 227.432495,444.124176 228.417816,443.878235 
	C239.296478,444.311310 246.310181,451.492371 253.887894,457.587250 
	C254.339844,457.402283 254.791809,457.217316 255.243774,457.032349 
	C255.243774,448.890442 255.243774,440.748535 255.243774,430.795380 
	C262.681335,433.469940 268.649536,435.553162 274.559082,437.791260 
	C275.831238,438.273010 276.891663,439.313812 278.049561,440.097107 
	C278.751312,438.686371 280.039337,437.284821 280.061554,435.863464 
	C280.231506,425.003998 280.154785,414.140717 280.154785,403.177734 
	C290.532013,404.878021 299.681854,408.685455 308.080688,417.352203 
	C311.388733,405.700867 314.378174,395.171631 317.571228,383.925354 
	C324.396973,387.913818 332.022583,392.369659 339.936157,396.993774 
	C342.276672,389.619202 344.594879,382.314941 347.059448,374.549500 
	C348.795197,377.828796 350.291199,380.655121 352.306732,384.462952 
	C358.483490,374.449860 364.091431,365.358826 369.711945,356.247467 
	C381.291138,360.182709 388.713409,367.555939 392.518372,378.633850 
	C393.324921,380.982056 394.187714,383.342987 395.338776,385.532959 
	C396.903168,388.509308 398.398712,389.573761 400.901917,385.814636 
	C406.827423,376.916229 413.196991,368.313507 419.591949,359.302521 
	C423.007141,361.364807 427.353363,363.800354 431.502533,366.534912 
	C439.684845,371.927582 445.016632,379.181030 445.561218,389.322479 
	C445.739594,392.644562 445.492615,396.033234 446.084839,399.273651 
	C446.469421,401.377808 448.020355,403.268799 449.012146,405.184662 
	C461.708130,397.202179 471.539062,388.001038 477.890228,373.602173 
	C481.162781,378.249176 484.819122,381.729187 486.365356,385.977234 
	C490.096100,396.227112 487.936859,406.630615 484.823517,416.687378 
	C484.103699,419.012482 482.625549,421.202087 485.085052,422.647278 
	C486.556854,423.512085 489.270599,423.525421 490.840820,422.744598 
	C498.061646,419.153809 505.076447,415.148712 512.308289,411.214417 
	C512.361572,411.346344 512.710938,412.072296 512.953796,412.832245 
	C515.977722,422.293579 513.951782,431.819275 513.509460,441.361206 
	C513.272156,446.478485 510.737732,452.147858 514.996094,456.521423 
	C519.309387,454.220093 523.018921,451.601379 527.143372,450.236938 
	C530.616089,449.088074 532.151611,447.334137 533.012451,443.952148 
	C536.241089,431.268860 539.722046,418.649811 543.570068,406.003662 
	C545.892883,405.954071 547.754211,405.907440 549.615479,405.860809 
	C545.856262,419.930023 542.097046,433.999237 538.060547,448.616119 
	C537.703369,450.175903 537.623413,451.187988 537.459900,453.257721 
	C539.086609,451.408508 539.802368,450.594818 540.518127,449.781128 
	C547.917297,453.415741 548.688293,460.621185 549.551880,467.445801 
	C552.452087,490.364075 546.720642,511.969482 538.648254,533.074097 
	C535.276611,541.889038 529.353699,545.053040 519.915649,542.432007 
	C512.701538,540.428528 505.946533,536.771606 498.581024,533.679626 
	C497.593231,539.059143 496.577271,545.333496 495.276794,551.548340 
	C489.147644,580.839478 478.644043,608.416992 464.141724,634.662598 
	C455.628937,650.068604 446.550873,664.744751 433.451874,676.711731 
	C421.753937,687.398682 408.679504,695.597046 392.637207,696.784180 
	C373.133362,698.227478 356.437408,691.071594 341.615265,678.392273 
	C299.635132,642.481323 276.633514,595.176208 260.001129,543.948547 
	C258.617462,539.686890 257.280548,535.407593 256.041626,531.102051 
	C254.850952,526.964172 253.815826,522.781494 252.705475,518.619751 
	C248.808258,524.732910 245.148071,531.007690 240.967834,536.914368 
	C236.036835,543.881958 231.154861,544.643921 223.798309,540.526062 
	C215.592514,535.932800 210.075165,528.963684 206.455734,520.542664 
	C199.297836,503.889130 196.288284,486.588593 199.730835,468.548889 
	C201.283569,460.412292 205.533981,453.666229 211.931564,448.526764 
	C214.199051,446.705170 214.347031,445.081177 213.826767,442.680695 
	C212.420914,436.194122 211.140945,429.680237 209.950714,422.472900 
	C209.776199,420.843262 209.462036,419.917908 209.147858,418.992554 
	C207.541733,406.599945 205.935608,394.207336 204.690674,381.364105 
	C204.884903,380.267395 204.717926,379.621338 204.550949,378.975250 
	C204.980530,370.244537 205.410110,361.513855 206.296082,352.346680 
	C206.739685,351.240082 206.726913,350.570007 206.714127,349.899902 
	C208.510590,339.216095 213.085831,329.649933 219.222046,320.224182 
	C220.565338,318.634766 221.247238,317.266724 221.929169,315.898682 
	C221.929169,315.898682 221.994003,315.969421 222.299545,315.924896 
	C223.070557,314.929749 223.536026,313.979126 224.001495,313.028503 
	C233.713837,300.180481 246.886337,291.870331 261.014343,284.816620 
	C262.785187,283.932495 264.579559,283.095367 266.928253,282.429260 
	C268.326172,282.073700 269.158875,281.525330 269.991577,280.976929 
	C272.099426,280.006927 274.207275,279.036926 276.840637,278.288635 
	C277.913971,278.068970 278.461792,277.627625 279.009583,277.186279 
	C286.164703,274.669647 293.319824,272.153046 301.193451,269.707336 
	C302.948792,269.342041 303.985596,268.905853 305.022430,268.469666 
	C305.452209,268.316223 305.882019,268.162781 306.679871,268.290558 
	C307.706543,268.208740 308.365234,267.845673 309.023926,267.482605 
M403.200348,654.884399 
	C406.121948,653.045471 409.392822,651.587891 411.897675,649.293945 
	C418.564911,643.187927 423.837189,635.972229 427.492340,627.628052 
	C431.597626,618.256409 428.725586,616.549377 420.300781,614.029236 
	C419.376495,613.752808 418.297058,613.799744 417.319702,613.927307 
	C410.922943,614.761963 404.454956,615.285339 398.161011,616.620850 
	C387.324188,618.920227 376.638550,619.469482 365.640808,617.401550 
	C360.775421,616.486694 355.481171,617.416138 350.459137,618.087769 
	C349.252258,618.249146 347.481628,620.704651 347.459015,622.128784 
	C347.335815,629.877502 349.780731,636.978027 355.263000,642.492798 
	C368.466583,655.774658 384.591248,658.816833 403.200348,654.884399 
M473.478821,459.995300 
	C469.166107,458.541534 464.954254,456.440704 460.522614,455.749908 
	C444.330414,453.225769 429.807098,457.901917 416.334930,466.787872 
	C413.932251,468.372681 412.842468,469.643646 414.541809,472.267151 
	C416.312408,475.000610 418.251404,473.885345 420.556580,472.934662 
	C427.407959,470.109070 434.212982,466.984558 441.323303,465.011841 
	C456.493744,460.802917 469.697021,466.350525 482.002380,474.706207 
	C484.515015,476.412354 486.752686,477.521759 488.596069,474.513672 
	C490.246582,471.820282 489.248444,469.545349 486.408447,467.908600 
	C482.246674,465.510040 478.223755,462.870575 473.478821,459.995300 
M284.561340,465.067871 
	C280.621429,468.284882 276.499359,471.307495 272.796570,474.777496 
	C269.564209,477.806732 269.694885,481.063293 273.711273,484.011963 
	C280.359161,475.267609 290.127075,471.667084 299.686371,467.978485 
	C312.348938,463.092438 324.916260,462.679657 336.726715,470.764862 
	C337.542664,471.323425 338.429840,472.099274 339.321381,472.153107 
	C340.764801,472.240265 343.023621,472.294830 343.519409,471.489624 
	C344.287354,470.242310 344.585571,467.352325 343.820038,466.741486 
	C339.870575,463.589966 335.858490,459.428528 331.245880,458.393829 
	C315.314545,454.820129 299.604126,455.730682 284.561340,465.067871 
M522.971252,501.412323 
	C527.041626,502.068237 528.598083,499.291290 529.589661,496.222229 
	C531.188904,491.272583 528.147888,488.168579 524.603516,485.464478 
	C529.020813,481.015106 533.423767,480.002472 538.450867,485.564606 
	C538.996216,482.744476 539.827576,479.585266 538.833923,478.831451 
	C536.273315,476.888672 532.826965,474.774445 529.875977,474.961426 
	C523.563782,475.361328 519.022583,479.393616 515.994873,485.013428 
	C511.416382,493.511719 510.459839,502.675568 511.115875,512.075134 
	C511.232208,513.742126 512.526428,515.326843 513.276733,516.949585 
	C513.772339,516.863281 514.267883,516.777039 514.763428,516.690796 
	C515.737305,510.421753 516.711182,504.152710 517.735229,497.560364 
	C519.741272,499.114075 521.022522,500.106415 522.971252,501.412323 
M368.602753,513.606689 
	C368.449738,515.248840 368.529510,516.953552 368.107178,518.523254 
	C364.490356,531.965515 360.661896,545.351868 357.153809,558.821899 
	C355.445190,565.382446 353.864716,572.040405 353.143585,578.752808 
	C352.940521,580.642944 355.591705,583.550049 357.655396,584.763000 
	C359.523499,585.861084 362.375610,585.285095 364.951996,585.457886 
	C362.998352,582.600769 360.572662,580.668152 360.804810,579.138916 
	C362.760620,566.252502 365.248444,553.447876 367.482880,540.602417 
	C369.036804,531.669067 370.690979,522.740234 371.786682,513.746826 
	C372.190796,510.430298 371.335663,506.832550 367.578094,503.995575 
	C368.004364,507.544647 368.313263,510.116577 368.602753,513.606689 
M233.923965,516.289795 
	C237.101166,520.336060 238.120895,516.900513 238.399185,514.629333 
	C238.882248,510.686829 239.161713,506.566406 238.547501,502.675140 
	C237.368256,495.204163 236.331085,487.531006 233.699936,480.517639 
	C230.856461,472.938354 224.246246,470.132538 217.580597,472.236816 
	C221.890976,475.286835 226.001953,478.195770 231.111145,481.811066 
	C222.201401,483.960876 218.769455,488.589111 220.239182,494.456116 
	C221.962051,501.333649 225.924088,503.598053 233.546341,501.542053 
	C233.546341,506.319702 233.546341,510.923187 233.923965,516.289795 
M302.824432,503.480438 
	C306.890167,508.884033 310.834991,509.078979 314.075409,503.975494 
	C314.866028,502.730286 315.482178,501.354797 316.034698,499.981384 
	C318.083008,494.889862 316.934967,491.040253 312.980621,489.514648 
	C308.970978,487.967682 303.221222,490.151733 301.981689,494.437378 
	C301.238464,497.007111 302.159546,500.058197 302.824432,503.480438 
M443.968719,500.198090 
	C444.394592,500.905914 444.744934,501.674683 445.258881,502.311432 
	C448.091797,505.821381 452.563751,506.510956 455.790833,503.978760 
	C459.108246,501.375671 460.914062,494.182709 458.969757,491.316437 
	C457.186066,488.686951 451.208771,487.730774 447.446564,489.625946 
	C443.267181,491.731293 441.715302,494.963440 443.968719,500.198090 
M402.777283,573.393372 
	C403.767914,576.757629 404.753662,580.123352 405.751923,583.485352 
	C406.092102,584.631165 406.162933,586.393677 406.898468,586.747009 
	C407.781494,587.171265 409.417969,586.682556 410.422516,586.079834 
	C413.940704,583.968750 415.258331,579.280518 413.589508,575.574646 
	C412.035858,572.124390 407.383301,570.903564 402.777283,573.393372 
M387.762299,581.408447 
	C387.133057,582.431763 386.503845,583.455139 385.756500,584.670532 
	C389.508392,584.670532 392.352417,584.754456 395.187622,584.632690 
	C396.471283,584.577576 398.161316,584.520996 398.911530,583.739685 
	C400.020355,582.584900 400.455597,580.783264 401.177612,579.257141 
	C399.938385,578.709778 398.537598,577.489990 397.490326,577.741455 
	C394.367584,578.491760 391.383545,579.819336 387.762299,581.408447 
M365.275024,581.425354 
	C365.834930,582.233826 366.226562,583.462769 366.988007,583.767517 
	C368.850586,584.512939 370.872101,584.922913 372.866821,585.182495 
	C373.070526,585.209045 374.089294,582.692627 373.768738,582.396423 
	C372.217163,580.962830 370.479401,579.407715 368.530090,578.826294 
	C366.865326,578.329773 364.823975,579.096069 361.687134,579.443665 
	C363.459747,580.392212 364.081207,580.724731 365.275024,581.425354 
M317.515991,269.414948 
	C317.515991,269.414948 317.579956,269.522949 317.515991,269.414948 
z"/>
<path fill="#FDFDFD" opacity="1.000000" stroke="none" 
	d="
M645.204407,884.442017 
	C644.018250,901.102722 641.899353,917.345337 642.058105,933.565613 
	C642.216736,949.768494 644.655151,965.949036 646.137878,982.631531 
	C631.097046,985.735718 615.107544,987.105225 598.977051,986.699402 
	C597.953674,986.673706 596.397827,984.531860 596.081055,983.147583 
	C589.962280,956.410583 583.992981,929.639343 577.990051,902.875854 
	C574.722107,888.305969 571.448914,873.737244 568.187683,859.210754 
	C586.680908,851.416565 628.638245,855.002563 649.141113,866.118958 
	C647.861206,872.035522 646.565613,878.024780 645.204407,884.442017 
z"/>
<path fill="#FDFDFD" opacity="1.000000" stroke="none" 
	d="
M562.246765,1083.726074 
	C544.316467,1076.275513 528.984619,1065.759521 515.909302,1051.837524 
	C530.272583,1030.725708 536.855835,1007.287415 538.979248,983.264526 
	C557.314636,986.041626 575.325012,988.769470 593.921936,991.586182 
	C601.350830,1024.711060 608.977112,1058.716431 616.764709,1093.440674 
	C597.695068,1094.204468 579.848083,1090.844360 562.246765,1083.726074 
z"/>
<path fill="#F7F7F7" opacity="1.000000" stroke="none" 
	d="
M253.905304,877.922241 
	C265.938660,901.106262 282.024475,919.427673 307.299438,927.953003 
	C320.689545,932.469482 334.017731,937.169556 347.369720,941.798584 
	C348.781464,942.288086 350.179901,942.822754 351.560059,943.395447 
	C370.257080,951.153381 374.398041,964.514709 363.446411,981.696472 
	C352.839539,998.337524 337.660156,1009.279480 318.860016,1013.977051 
	C294.839691,1019.979065 270.607178,1025.741943 246.121155,1029.069580 
	C227.805527,1031.558594 208.940735,1030.314697 190.328140,1030.092041 
	C185.726303,1030.036987 180.916702,1028.000244 176.614792,1025.991577 
	C165.499527,1020.801514 161.835999,1013.151306 165.716949,1001.533936 
	C168.000610,994.697876 171.867264,988.329651 175.475723,982.010071 
	C182.645325,969.453857 190.041672,957.024353 197.504211,944.638794 
	C207.116974,928.684509 211.441605,911.305420 211.822937,892.835510 
	C212.289764,870.225464 210.777359,847.934692 201.532974,826.803040 
	C198.551132,819.986816 200.193314,815.362183 206.315964,811.131226 
	C214.201141,805.682251 223.029205,804.659729 232.132950,806.291687 
	C239.255417,807.568481 243.974335,813.653748 243.445282,821.202393 
	C242.063065,840.924500 245.972427,859.574036 253.905304,877.922241 
M307.356323,1006.910034 
	C320.042542,1002.690857 331.832367,996.683350 342.900299,989.204468 
	C350.294128,984.208130 355.746674,977.985535 358.170258,969.041199 
	C360.857239,959.124573 357.737549,953.681885 347.584076,949.125244 
	C346.081146,948.450745 344.429840,948.089600 342.827423,947.656494 
	C331.279938,944.535156 319.787903,941.181152 308.161957,938.384277 
	C291.573303,934.393555 278.522156,925.234253 268.168549,911.979309 
	C265.976562,909.173096 263.506409,908.564331 260.299164,909.333862 
	C255.992554,910.367126 251.666519,911.319397 247.571518,912.255493 
	C244.308243,906.188599 244.004822,900.457886 244.847015,894.294189 
	C245.151398,892.066467 243.168961,889.095032 241.419373,887.218933 
	C240.663208,886.407959 236.763153,886.887939 236.197113,887.874817 
	C234.935486,890.074341 233.951950,893.189941 234.528259,895.518066 
	C235.506668,899.470520 237.857285,903.069092 239.471619,906.883911 
	C240.374115,909.016663 240.955307,911.285400 241.787231,913.815063 
	C236.383865,914.672791 232.064377,915.358521 227.600143,916.067139 
	C228.257553,910.547729 227.113815,907.882080 224.270844,908.102905 
	C219.938889,908.439392 221.192505,911.672668 220.927399,914.448975 
	C220.771957,916.076965 219.049789,917.674438 217.776154,919.048096 
	C215.971786,920.994202 213.291077,922.384827 212.121597,924.610229 
	C209.510605,929.578552 208.095917,935.200012 205.308990,940.046509 
	C199.026306,950.971985 191.910431,961.420715 185.692108,972.380310 
	C179.978729,982.449890 172.938354,991.915344 170.562210,1003.663269 
	C168.686462,1012.937195 171.571075,1018.690430 180.607254,1021.298706 
	C195.793335,1025.682251 211.271072,1027.294800 227.033295,1025.009033 
	C232.464554,1024.221436 237.910706,1023.529053 243.359344,1022.870117 
	C265.098877,1020.240967 286.081146,1014.565002 307.356323,1006.910034 
M222.422363,825.115356 
	C226.552536,823.145142 231.092834,821.728516 234.702118,819.055054 
	C238.620529,816.152405 237.699722,812.780640 233.208923,810.751953 
	C226.056717,807.520813 211.539032,810.531006 206.224640,816.346863 
	C203.028076,819.845093 203.403061,823.055725 207.961990,824.239136 
	C212.300690,825.365479 217.032303,824.978210 222.422363,825.115356 
M224.372498,876.019714 
	C227.778397,879.304565 231.564972,880.028381 235.594788,877.345032 
	C238.517166,875.398987 239.508163,869.415222 238.048187,865.473999 
	C236.353088,860.898010 232.219910,860.435120 228.652557,860.806274 
	C226.525909,861.027588 224.143219,863.620789 222.834778,865.739929 
	C220.874161,868.915222 221.313385,872.418945 224.372498,876.019714 
M226.294067,902.594299 
	C226.074402,900.782349 226.254364,898.761169 225.462631,897.248779 
	C225.079956,896.517822 222.088654,896.102661 221.636353,896.655396 
	C220.296417,898.293152 218.396011,900.978882 218.949219,902.359009 
	C220.280930,905.680969 223.206436,905.396667 226.294067,902.594299 
z"/>
<path fill="#FDFDFD" opacity="1.000000" stroke="none" 
	d="
M656.663208,869.193726 
	C687.951599,885.584839 709.776306,909.805420 721.718445,942.806824 
	C722.926453,946.144958 722.444153,948.072937 719.650024,950.311951 
	C699.616394,966.365479 676.598755,975.766663 651.071228,981.667725 
	C643.363953,943.434509 643.270386,905.703918 652.856812,867.549744 
	C654.309692,868.169556 655.313599,868.597778 656.663208,869.193726 
z"/>
<path fill="#FDFDFD" opacity="1.000000" stroke="none" 
	d="
M652.222900,1002.585205 
	C661.296753,1031.181885 665.417847,1039.745728 684.463501,1069.600464 
	C665.718628,1083.890137 644.538330,1091.426758 620.674194,1093.298706 
	C613.025940,1059.196289 605.428162,1025.318848 597.859741,991.572327 
	C614.529541,990.100830 631.013306,988.645752 648.137817,987.134155 
	C649.340515,991.693909 650.725525,996.944763 652.222900,1002.585205 
z"/>
<path fill="#FCFCFC" opacity="1.000000" stroke="none" 
	d="
M520.111206,883.107849 
	C534.372009,871.286438 548.514160,863.809753 564.376221,859.824890 
	C573.821594,901.920288 583.263245,943.999207 592.793091,986.471252 
	C575.175537,986.048645 558.328064,983.336609 541.799500,978.724182 
	C540.603516,978.390442 539.368591,975.543091 539.395935,973.884827 
	C539.706055,955.060974 537.603027,936.549377 530.862854,918.941040 
	C526.733582,908.153381 521.175476,897.912659 515.981567,886.834534 
	C516.682007,886.199585 518.261353,884.767944 520.111206,883.107849 
z"/>
<path fill="#FCFCFC" opacity="1.000000" stroke="none" 
	d="
M689.122559,1065.915283 
	C687.578369,1065.214233 685.950256,1064.567749 685.094482,1063.369507 
	C671.603394,1044.480225 662.400879,1023.551941 655.960388,1001.344788 
	C654.483459,996.252014 653.209595,991.100403 651.731018,985.558838 
	C678.245728,979.389709 702.665833,969.402283 723.613281,952.007202 
	C733.584717,980.691772 728.975159,1031.978516 689.122559,1065.915283 
z"/>
<path fill="#FCFCFC" opacity="1.000000" stroke="none" 
	d="
M497.695709,1027.316528 
	C485.289825,1005.410522 480.033173,982.283081 481.996368,958.261902 
	C499.273773,966.183472 516.689880,974.168640 535.090210,982.605042 
	C533.434998,1005.346191 527.066467,1027.962524 512.812012,1049.551880 
	C507.523743,1041.787964 502.702850,1034.710083 497.695709,1027.316528 
z"/>
<path fill="#FBFBFB" opacity="1.000000" stroke="none" 
	d="
M490.536102,957.417603 
	C482.078033,952.140808 482.063385,952.137451 484.204681,942.772705 
	C488.712036,923.060303 497.920227,905.859070 512.082153,890.390808 
	C530.327637,916.698486 536.189270,945.650757 535.501526,977.079590 
	C519.371033,972.280151 504.698700,965.900574 490.536102,957.417603 
z"/>
<path fill="#F3F3F3" opacity="1.000000" stroke="none" 
	d="
M415.170441,270.358429 
	C415.194397,268.897430 415.218353,267.436432 415.616211,265.842224 
	C426.159210,263.665833 436.249573,260.694855 446.518158,259.823151 
	C458.353851,258.818451 470.418182,258.872986 482.251465,259.935272 
	C494.029388,260.992554 505.658325,263.794495 517.317444,266.015686 
	C519.545776,266.440186 521.573486,267.831360 523.761719,268.577393 
	C525.962219,269.327606 528.064026,270.104858 527.043762,273.004211 
	C526.242432,275.281433 525.573547,277.480652 522.036377,277.235443 
	C511.205139,276.484558 501.646729,280.704163 492.172180,285.532715 
	C499.995453,290.026886 507.741974,294.236053 515.249573,298.835266 
	C537.227539,312.299072 552.295715,330.828949 556.259705,356.935577 
	C558.044556,368.690460 556.876282,380.415833 553.707947,391.902100 
	C552.474976,396.372070 551.220154,400.836029 549.795410,405.581787 
	C547.754211,405.907440 545.892883,405.954071 543.548340,405.615509 
	C543.143738,404.906647 543.213318,404.580475 543.302246,404.259644 
	C547.074158,390.650238 551.161194,377.102020 550.033875,362.687653 
	C549.182678,351.804230 546.426147,341.706665 540.793579,332.095306 
	C530.360535,314.292419 514.003235,303.352417 497.314606,292.681244 
	C494.446655,290.847412 490.929382,289.238281 487.635376,289.075409 
	C484.067078,288.898926 481.883301,287.320007 481.689941,284.578766 
	C481.583069,283.064087 484.175262,280.750977 486.056854,279.813416 
	C492.826813,276.440125 499.812042,273.498901 507.043213,270.247284 
	C488.350220,265.514160 469.577393,263.730560 450.670288,263.883545 
	C438.556152,263.981537 426.503387,265.468170 415.170441,270.358429 
z"/>
<path fill="#F3F3F3" opacity="1.000000" stroke="none" 
	d="
M379.784760,251.738556 
	C378.379425,251.632065 376.741241,251.318359 374.978485,250.657532 
	C376.419922,250.717392 377.985901,251.124359 379.784760,251.738556 
z"/>
<path fill="#F3F3F3" opacity="1.000000" stroke="none" 
	d="
M540.342712,449.525940 
	C539.802368,450.594818 539.086609,451.408508 537.459900,453.257721 
	C537.623413,451.187988 537.703369,450.175903 538.084473,448.990845 
	C538.979492,448.968811 539.573364,449.119781 540.342712,449.525940 
z"/>
<path fill="#F3F3F3" opacity="1.000000" stroke="none" 
	d="
M221.643402,316.045837 
	C221.247238,317.266724 220.565338,318.634766 219.503662,320.021667 
	C219.868484,318.757996 220.613068,317.475494 221.643402,316.045837 
z"/>
<path fill="#F3F3F3" opacity="1.000000" stroke="none" 
	d="
M368.738220,248.864532 
	C368.087769,248.962097 367.191895,248.861771 366.159607,248.513489 
	C366.846405,248.399231 367.669586,248.532959 368.738220,248.864532 
z"/>
<path fill="#F3F3F3" opacity="1.000000" stroke="none" 
	d="
M269.666992,280.973572 
	C269.158875,281.525330 268.326172,282.073700 267.274963,282.395935 
	C267.818451,281.769897 268.580414,281.370056 269.666992,280.973572 
z"/>
<path fill="#F3F3F3" opacity="1.000000" stroke="none" 
	d="
M209.109436,419.354248 
	C209.462036,419.917908 209.776199,420.843262 209.957916,422.072815 
	C209.573975,421.489990 209.322495,420.602966 209.109436,419.354248 
z"/>
<path fill="#F3F3F3" opacity="1.000000" stroke="none" 
	d="
M308.755005,267.410309 
	C308.365234,267.845673 307.706543,268.208740 307.031128,268.313049 
	C307.504974,267.815552 307.995544,267.576782 308.755005,267.410309 
z"/>
<path fill="#F3F3F3" opacity="1.000000" stroke="none" 
	d="
M304.686096,268.487793 
	C303.985596,268.905853 302.948792,269.342041 301.540344,269.622620 
	C302.229065,269.146637 303.289429,268.826233 304.686096,268.487793 
z"/>
<path fill="#F3F3F3" opacity="1.000000" stroke="none" 
	d="
M223.720825,313.163452 
	C223.536026,313.979126 223.070557,314.929749 222.253876,315.910187 
	C222.415161,315.059448 222.927658,314.178894 223.720825,313.163452 
z"/>
<path fill="#F3F3F3" opacity="1.000000" stroke="none" 
	d="
M278.728271,277.182739 
	C278.461792,277.627625 277.913971,278.068970 277.198425,278.298828 
	C277.502747,277.784637 277.974854,277.481934 278.728271,277.182739 
z"/>
<path fill="#F3F3F3" opacity="1.000000" stroke="none" 
	d="
M206.475082,350.079498 
	C206.726913,350.570007 206.739685,351.240082 206.457275,351.959045 
	C206.186752,351.424957 206.211395,350.842010 206.475082,350.079498 
z"/>
<path fill="#F3F3F3" opacity="1.000000" stroke="none" 
	d="
M315.072784,262.784149 
	C315.527679,262.516205 316.213196,262.417877 316.950409,262.638428 
	C316.435883,262.956146 315.869629,262.954956 315.072784,262.784149 
z"/>
<path fill="#F3F3F3" opacity="1.000000" stroke="none" 
	d="
M204.425995,379.311890 
	C204.717926,379.621338 204.884903,380.267395 204.813797,380.970093 
	C204.484161,380.567322 204.392609,380.107910 204.425995,379.311890 
z"/>
<path fill="#F3F3F3" opacity="1.000000" stroke="none" 
	d="
M300.669281,252.163589 
	C300.366760,252.440552 299.722961,252.669022 299.030701,252.629517 
	C299.430817,252.279404 299.879395,252.197250 300.669281,252.163589 
z"/>
<path fill="#F3F3F3" opacity="1.000000" stroke="none" 
	d="
M311.243591,261.926575 
	C311.168030,261.450897 311.343201,261.052002 311.518372,260.653107 
	C311.668549,260.905914 311.818726,261.158691 311.987305,261.649139 
	C311.835236,261.925629 311.664764,261.964508 311.243591,261.926575 
z"/>
<path fill="#010101" opacity="1.000000" stroke="none" 
	d="
M415.069489,270.661743 
	C426.503387,265.468170 438.556152,263.981537 450.670288,263.883545 
	C469.577393,263.730560 488.350220,265.514160 507.043213,270.247284 
	C499.812042,273.498901 492.826813,276.440125 486.056854,279.813416 
	C484.175262,280.750977 481.583069,283.064087 481.689941,284.578766 
	C481.883301,287.320007 484.067078,288.898926 487.635376,289.075409 
	C490.929382,289.238281 494.446655,290.847412 497.314606,292.681244 
	C514.003235,303.352417 530.360535,314.292419 540.793579,332.095306 
	C546.426147,341.706665 549.182678,351.804230 550.033875,362.687653 
	C551.161194,377.102020 547.074158,390.650238 543.302246,404.259644 
	C543.213318,404.580475 543.143738,404.906647 543.086792,405.618530 
	C539.722046,418.649811 536.241089,431.268860 533.012451,443.952148 
	C532.151611,447.334137 530.616089,449.088074 527.143372,450.236938 
	C523.018921,451.601379 519.309387,454.220093 514.996094,456.521423 
	C510.737732,452.147858 513.272156,446.478485 513.509460,441.361206 
	C513.951782,431.819275 515.977722,422.293579 512.953796,412.832245 
	C512.710938,412.072296 512.361572,411.346344 512.308289,411.214417 
	C505.076447,415.148712 498.061646,419.153809 490.840820,422.744598 
	C489.270599,423.525421 486.556854,423.512085 485.085052,422.647278 
	C482.625549,421.202087 484.103699,419.012482 484.823517,416.687378 
	C487.936859,406.630615 490.096100,396.227112 486.365356,385.977234 
	C484.819122,381.729187 481.162781,378.249176 477.890228,373.602173 
	C471.539062,388.001038 461.708130,397.202179 449.012146,405.184662 
	C448.020355,403.268799 446.469421,401.377808 446.084839,399.273651 
	C445.492615,396.033234 445.739594,392.644562 445.561218,389.322479 
	C445.016632,379.181030 439.684845,371.927582 431.502533,366.534912 
	C427.353363,363.800354 423.007141,361.364807 419.591949,359.302521 
	C413.196991,368.313507 406.827423,376.916229 400.901917,385.814636 
	C398.398712,389.573761 396.903168,388.509308 395.338776,385.532959 
	C394.187714,383.342987 393.324921,380.982056 392.518372,378.633850 
	C388.713409,367.555939 381.291138,360.182709 369.711945,356.247467 
	C364.091431,365.358826 358.483490,374.449860 352.306732,384.462952 
	C350.291199,380.655121 348.795197,377.828796 347.059448,374.549500 
	C344.594879,382.314941 342.276672,389.619202 339.936157,396.993774 
	C332.022583,392.369659 324.396973,387.913818 317.571228,383.925354 
	C314.378174,395.171631 311.388733,405.700867 308.080688,417.352203 
	C299.681854,408.685455 290.532013,404.878021 280.154785,403.177734 
	C280.154785,414.140717 280.231506,425.003998 280.061554,435.863464 
	C280.039337,437.284821 278.751312,438.686371 278.049561,440.097107 
	C276.891663,439.313812 275.831238,438.273010 274.559082,437.791260 
	C268.649536,435.553162 262.681335,433.469940 255.243774,430.795380 
	C255.243774,440.748535 255.243774,448.890442 255.243774,457.032349 
	C254.791809,457.217316 254.339844,457.402283 253.887894,457.587250 
	C246.310181,451.492371 239.296478,444.311310 228.237976,443.757202 
	C227.095734,443.809418 226.542923,443.889374 225.990112,443.969360 
	C223.393677,444.121735 220.797226,444.274109 217.567261,444.463654 
	C216.296448,434.333069 214.824631,424.112885 213.774673,413.849548 
	C212.445190,400.853851 211.314255,387.833099 210.412231,374.801361 
	C210.140732,370.878906 210.917358,366.883911 211.296417,362.299133 
	C211.353516,361.085266 211.328049,360.494446 211.302551,359.903595 
	C211.508224,359.521545 211.713898,359.139526 211.963196,358.119141 
	C212.102844,356.664886 212.198898,355.848969 212.294937,355.033051 
	C213.235657,351.682800 214.176361,348.332550 215.388916,344.393799 
	C215.864777,342.907349 216.068787,342.009399 216.272781,341.111481 
	C222.655441,326.098206 231.865067,313.297241 245.915085,303.523956 
	C247.694504,302.177490 248.963806,301.192078 250.233124,300.206665 
	C250.233124,300.206665 250.080200,300.081024 250.465302,300.098267 
	C251.715729,299.438629 252.581055,298.761719 253.446350,298.084839 
	C271.337463,288.542267 289.814728,280.383240 309.561401,275.544128 
	C317.562531,273.583374 325.847015,272.796600 333.893982,270.991638 
	C335.813080,270.561188 337.768799,268.442047 338.751526,266.591797 
	C339.149536,265.842468 337.323334,263.105927 335.929077,262.364136 
	C332.009979,260.279022 327.789307,258.760742 323.141235,256.761108 
	C322.697021,256.323792 322.799133,256.144287 322.901215,255.964752 
	C334.265656,255.410934 345.630096,254.857101 357.643127,254.498291 
	C358.864349,254.730042 359.436920,254.766785 360.009521,254.803528 
	C362.395050,255.244247 364.780548,255.684982 367.738220,256.352051 
	C368.879211,256.612183 369.448090,256.645966 370.016968,256.679749 
	C373.067413,257.482239 376.117859,258.284698 379.776794,259.336304 
	C381.597595,259.909485 382.809875,260.233521 384.022186,260.557587 
	C390.417847,262.745575 396.813538,264.933594 403.807831,267.294495 
	C404.939148,267.615967 405.471863,267.764526 406.004547,267.913116 
	C408.992554,268.930420 411.980530,269.947754 415.069489,270.661743 
z"/>
<path fill="#080808" opacity="1.000000" stroke="none" 
	d="
M402.816528,654.997070 
	C384.591248,658.816833 368.466583,655.774658 355.263000,642.492798 
	C349.780731,636.978027 347.335815,629.877502 347.459015,622.128784 
	C347.481628,620.704651 349.252258,618.249146 350.459137,618.087769 
	C355.481171,617.416138 360.775421,616.486694 365.640808,617.401550 
	C376.638550,619.469482 387.324188,618.920227 398.161011,616.620850 
	C404.454956,615.285339 410.922943,614.761963 417.319702,613.927307 
	C418.297058,613.799744 419.376495,613.752808 420.300781,614.029236 
	C428.725586,616.549377 431.597626,618.256409 427.492340,627.628052 
	C423.837189,635.972229 418.564911,643.187927 411.897675,649.293945 
	C409.392822,651.587891 406.121948,653.045471 402.816528,654.997070 
M396.466431,625.992920 
	C402.354401,624.271240 408.579681,623.241699 413.560242,617.639282 
	C403.118134,619.171692 393.536285,621.352112 383.877411,621.775391 
	C374.411407,622.190308 364.867035,620.816711 355.357056,620.228088 
	C355.318665,620.660522 355.280273,621.092957 355.241913,621.525391 
	C368.245056,626.618652 381.615967,628.959656 396.466431,625.992920 
M408.362518,644.854187 
	C409.651581,643.495422 410.940643,642.136658 412.887604,640.084473 
	C397.766632,641.615417 383.848572,643.024597 370.175140,644.408936 
	C376.547516,647.283569 383.811371,649.349060 391.534851,649.818115 
	C397.465454,650.178223 403.141357,649.533203 408.362518,644.854187 
z"/>
<path fill="#0A0A0A" opacity="1.000000" stroke="none" 
	d="
M473.810242,460.164551 
	C478.223755,462.870575 482.246674,465.510040 486.408447,467.908600 
	C489.248444,469.545349 490.246582,471.820282 488.596069,474.513672 
	C486.752686,477.521759 484.515015,476.412354 482.002380,474.706207 
	C469.697021,466.350525 456.493744,460.802917 441.323303,465.011841 
	C434.212982,466.984558 427.407959,470.109070 420.556580,472.934662 
	C418.251404,473.885345 416.312408,475.000610 414.541809,472.267151 
	C412.842468,469.643646 413.932251,468.372681 416.334930,466.787872 
	C429.807098,457.901917 444.330414,453.225769 460.522614,455.749908 
	C464.954254,456.440704 469.166107,458.541534 473.810242,460.164551 
z"/>
<path fill="#0A0A0A" opacity="1.000000" stroke="none" 
	d="
M284.890625,464.906189 
	C299.604126,455.730682 315.314545,454.820129 331.245880,458.393829 
	C335.858490,459.428528 339.870575,463.589966 343.820038,466.741486 
	C344.585571,467.352325 344.287354,470.242310 343.519409,471.489624 
	C343.023621,472.294830 340.764801,472.240265 339.321381,472.153107 
	C338.429840,472.099274 337.542664,471.323425 336.726715,470.764862 
	C324.916260,462.679657 312.348938,463.092438 299.686371,467.978485 
	C290.127075,471.667084 280.359161,475.267609 273.711273,484.011963 
	C269.694885,481.063293 269.564209,477.806732 272.796570,474.777496 
	C276.499359,471.307495 280.621429,468.284882 284.890625,464.906189 
z"/>
<path fill="#0B0B0B" opacity="1.000000" stroke="none" 
	d="
M522.637512,501.255554 
	C521.022522,500.106415 519.741272,499.114075 517.735229,497.560364 
	C516.711182,504.152710 515.737305,510.421753 514.763428,516.690796 
	C514.267883,516.777039 513.772339,516.863281 513.276733,516.949585 
	C512.526428,515.326843 511.232208,513.742126 511.115875,512.075134 
	C510.459839,502.675568 511.416382,493.511719 515.994873,485.013428 
	C519.022583,479.393616 523.563782,475.361328 529.875977,474.961426 
	C532.826965,474.774445 536.273315,476.888672 538.833923,478.831451 
	C539.827576,479.585266 538.996216,482.744476 538.450867,485.564606 
	C533.423767,480.002472 529.020813,481.015106 524.603516,485.464478 
	C528.147888,488.168579 531.188904,491.272583 529.589661,496.222229 
	C528.598083,499.291290 527.041626,502.068237 522.637512,501.255554 
z"/>
<path fill="#101010" opacity="1.000000" stroke="none" 
	d="
M368.612457,513.147583 
	C368.313263,510.116577 368.004364,507.544647 367.578094,503.995575 
	C371.335663,506.832550 372.190796,510.430298 371.786682,513.746826 
	C370.690979,522.740234 369.036804,531.669067 367.482880,540.602417 
	C365.248444,553.447876 362.760620,566.252502 360.804810,579.138916 
	C360.572662,580.668152 362.998352,582.600769 364.951996,585.457886 
	C362.375610,585.285095 359.523499,585.861084 357.655396,584.763000 
	C355.591705,583.550049 352.940521,580.642944 353.143585,578.752808 
	C353.864716,572.040405 355.445190,565.382446 357.153809,558.821899 
	C360.661896,545.351868 364.490356,531.965515 368.107178,518.523254 
	C368.529510,516.953552 368.449738,515.248840 368.612457,513.147583 
z"/>
<path fill="#0D0D0D" opacity="1.000000" stroke="none" 
	d="
M233.735153,515.908203 
	C233.546341,510.923187 233.546341,506.319702 233.546341,501.542053 
	C225.924088,503.598053 221.962051,501.333649 220.239182,494.456116 
	C218.769455,488.589111 222.201401,483.960876 231.111145,481.811066 
	C226.001953,478.195770 221.890976,475.286835 217.580597,472.236816 
	C224.246246,470.132538 230.856461,472.938354 233.699936,480.517639 
	C236.331085,487.531006 237.368256,495.204163 238.547501,502.675140 
	C239.161713,506.566406 238.882248,510.686829 238.399185,514.629333 
	C238.120895,516.900513 237.101166,520.336060 233.735153,515.908203 
z"/>
<path fill="#0A0A0A" opacity="1.000000" stroke="none" 
	d="
M302.578522,503.186707 
	C302.159546,500.058197 301.238464,497.007111 301.981689,494.437378 
	C303.221222,490.151733 308.970978,487.967682 312.980621,489.514648 
	C316.934967,491.040253 318.083008,494.889862 316.034698,499.981384 
	C315.482178,501.354797 314.866028,502.730286 314.075409,503.975494 
	C310.834991,509.078979 306.890167,508.884033 302.578522,503.186707 
z"/>
<path fill="#0A0A0A" opacity="1.000000" stroke="none" 
	d="
M443.821777,499.838379 
	C441.715302,494.963440 443.267181,491.731293 447.446564,489.625946 
	C451.208771,487.730774 457.186066,488.686951 458.969757,491.316437 
	C460.914062,494.182709 459.108246,501.375671 455.790833,503.978760 
	C452.563751,506.510956 448.091797,505.821381 445.258881,502.311432 
	C444.744934,501.674683 444.394592,500.905914 443.821777,499.838379 
z"/>
<path fill="#0D0D0D" opacity="1.000000" stroke="none" 
	d="
M402.618317,573.023743 
	C407.383301,570.903564 412.035858,572.124390 413.589508,575.574646 
	C415.258331,579.280518 413.940704,583.968750 410.422516,586.079834 
	C409.417969,586.682556 407.781494,587.171265 406.898468,586.747009 
	C406.162933,586.393677 406.092102,584.631165 405.751923,583.485352 
	C404.753662,580.123352 403.767914,576.757629 402.618317,573.023743 
z"/>
<path fill="#101010" opacity="1.000000" stroke="none" 
	d="
M388.053833,581.164917 
	C391.383545,579.819336 394.367584,578.491760 397.490326,577.741455 
	C398.537598,577.489990 399.938385,578.709778 401.177643,579.257080 
	C400.455597,580.783264 400.020355,582.584900 398.911530,583.739685 
	C398.161316,584.520996 396.471283,584.577576 395.187622,584.632690 
	C392.352417,584.754456 389.508392,584.670532 385.756500,584.670532 
	C386.503845,583.455139 387.133057,582.431763 388.053833,581.164917 
z"/>
<path fill="#101010" opacity="1.000000" stroke="none" 
	d="
M364.988831,581.241333 
	C364.081207,580.724731 363.459747,580.392212 361.687134,579.443665 
	C364.823975,579.096069 366.865326,578.329773 368.530090,578.826294 
	C370.479401,579.407715 372.217163,580.962830 373.768738,582.396423 
	C374.089294,582.692627 373.070526,585.209045 372.866821,585.182495 
	C370.872101,584.922913 368.850586,584.512939 366.988007,583.767517 
	C366.226562,583.462769 365.834930,582.233826 364.988831,581.241333 
z"/>
<path fill="#F3F3F3" opacity="1.000000" stroke="none" 
	d="
M249.791992,300.145874 
	C248.963806,301.192078 247.694504,302.177490 246.135742,303.240967 
	C245.351105,302.586945 244.855957,301.854858 244.360794,301.122803 
	C246.024155,300.776886 247.687500,300.430969 249.791992,300.145874 
z"/>
<path fill="#F3F3F3" opacity="1.000000" stroke="none" 
	d="
M383.978516,260.260468 
	C382.809875,260.233521 381.597595,259.909485 380.175171,259.351318 
	C382.114777,255.521942 382.810516,258.748108 383.978516,260.260468 
z"/>
<path fill="#F3F3F3" opacity="1.000000" stroke="none" 
	d="
M211.887665,355.032776 
	C212.198898,355.848969 212.102844,356.664886 211.918884,357.788513 
	C210.981613,357.543274 210.132233,356.990356 209.282867,356.437439 
	C210.015381,355.969116 210.747879,355.500824 211.887665,355.032776 
z"/>
<path fill="#F3F3F3" opacity="1.000000" stroke="none" 
	d="
M370.013306,256.361389 
	C369.448090,256.645966 368.879211,256.612183 368.139587,256.347595 
	C368.382080,255.557129 368.795288,254.997467 369.208496,254.437805 
	C369.475555,254.972885 369.742584,255.507950 370.013306,256.361389 
z"/>
<path fill="#F3F3F3" opacity="1.000000" stroke="none" 
	d="
M253.043030,298.063538 
	C252.581055,298.761719 251.715729,299.438629 250.520203,300.180603 
	C251.006546,299.511200 251.823120,298.776733 253.043030,298.063538 
z"/>
<path fill="#F3F3F3" opacity="1.000000" stroke="none" 
	d="
M215.939087,341.113220 
	C216.068787,342.009399 215.864777,342.907349 215.381912,344.013306 
	C215.270493,343.185852 215.437958,342.150421 215.939087,341.113220 
z"/>
<path fill="#F3F3F3" opacity="1.000000" stroke="none" 
	d="
M211.032761,360.031616 
	C211.328049,360.494446 211.353516,361.085266 211.238342,361.852661 
	C210.986099,361.406036 210.874527,360.782867 211.032761,360.031616 
z"/>
<path fill="#F3F3F3" opacity="1.000000" stroke="none" 
	d="
M405.965393,267.623474 
	C405.471863,267.764526 404.939148,267.615967 404.190735,267.275452 
	C404.625427,267.166962 405.275848,267.250397 405.965393,267.623474 
z"/>
<path fill="#F3F3F3" opacity="1.000000" stroke="none" 
	d="
M359.961182,254.514099 
	C359.436920,254.766785 358.864349,254.730042 358.107666,254.461884 
	C358.586700,254.228531 359.249786,254.226608 359.961182,254.514099 
z"/>
<path fill="#F3F3F3" opacity="1.000000" stroke="none" 
	d="
M226.135559,444.199432 
	C226.542923,443.889374 227.095734,443.809418 227.828384,443.850494 
	C227.432495,444.124176 226.856766,444.276855 226.135559,444.199432 
z"/>
<path fill="#F3F3F3" opacity="1.000000" stroke="none" 
	d="
M322.641296,255.963470 
	C322.799133,256.144287 322.697021,256.323792 322.761353,256.764587 
	C322.536987,256.921478 322.146179,256.817047 321.755341,256.712616 
	C321.964020,256.462463 322.172699,256.212311 322.641296,255.963470 
z"/>
<path fill="#F3F3F3" opacity="1.000000" stroke="none" 
	d="
M317.547974,269.468933 
	C317.579956,269.522949 317.515991,269.414948 317.547974,269.468933 
z"/>
<path fill="#020202" opacity="1.000000" stroke="none" 
	d="
M307.003326,1007.061279 
	C286.081146,1014.565002 265.098877,1020.240967 243.359344,1022.870117 
	C237.910706,1023.529053 232.464554,1024.221436 227.033295,1025.009033 
	C211.271072,1027.294800 195.793335,1025.682251 180.607254,1021.298706 
	C171.571075,1018.690430 168.686462,1012.937195 170.562210,1003.663269 
	C172.938354,991.915344 179.978729,982.449890 185.692108,972.380310 
	C191.910431,961.420715 199.026306,950.971985 205.308990,940.046509 
	C208.095917,935.200012 209.510605,929.578552 212.121597,924.610229 
	C213.291077,922.384827 215.971786,920.994202 217.776154,919.048096 
	C219.049789,917.674438 220.771957,916.076965 220.927399,914.448975 
	C221.192505,911.672668 219.938889,908.439392 224.270844,908.102905 
	C227.113815,907.882080 228.257553,910.547729 227.600143,916.067139 
	C232.064377,915.358521 236.383865,914.672791 241.787231,913.815063 
	C240.955307,911.285400 240.374115,909.016663 239.471619,906.883911 
	C237.857285,903.069092 235.506668,899.470520 234.528259,895.518066 
	C233.951950,893.189941 234.935486,890.074341 236.197113,887.874817 
	C236.763153,886.887939 240.663208,886.407959 241.419373,887.218933 
	C243.168961,889.095032 245.151398,892.066467 244.847015,894.294189 
	C244.004822,900.457886 244.308243,906.188599 247.571518,912.255493 
	C251.666519,911.319397 255.992554,910.367126 260.299164,909.333862 
	C263.506409,908.564331 265.976562,909.173096 268.168549,911.979309 
	C278.522156,925.234253 291.573303,934.393555 308.161957,938.384277 
	C319.787903,941.181152 331.279938,944.535156 342.827423,947.656494 
	C344.429840,948.089600 346.081146,948.450745 347.584076,949.125244 
	C357.737549,953.681885 360.857239,959.124573 358.170258,969.041199 
	C355.746674,977.985535 350.294128,984.208130 342.900299,989.204468 
	C331.832367,996.683350 320.042542,1002.690857 307.003326,1007.061279 
z"/>
<path fill="#0A0A0A" opacity="1.000000" stroke="none" 
	d="
M222.006775,825.185913 
	C217.032303,824.978210 212.300690,825.365479 207.961990,824.239136 
	C203.403061,823.055725 203.028076,819.845093 206.224640,816.346863 
	C211.539032,810.531006 226.056717,807.520813 233.208923,810.751953 
	C237.699722,812.780640 238.620529,816.152405 234.702118,819.055054 
	C231.092834,821.728516 226.552536,823.145142 222.006775,825.185913 
z"/>
<path fill="#0A0A0A" opacity="1.000000" stroke="none" 
	d="
M224.141312,875.705078 
	C221.313385,872.418945 220.874161,868.915222 222.834778,865.739929 
	C224.143219,863.620789 226.525909,861.027588 228.652557,860.806274 
	C232.219910,860.435120 236.353088,860.898010 238.048187,865.473999 
	C239.508163,869.415222 238.517166,875.398987 235.594788,877.345032 
	C231.564972,880.028381 227.778397,879.304565 224.141312,875.705078 
z"/>
<path fill="#101010" opacity="1.000000" stroke="none" 
	d="
M226.066208,902.895752 
	C223.206436,905.396667 220.280930,905.680969 218.949219,902.359009 
	C218.396011,900.978882 220.296417,898.293152 221.636353,896.655396 
	C222.088654,896.102661 225.079956,896.517822 225.462631,897.248779 
	C226.254364,898.761169 226.074402,900.782349 226.066208,902.895752 
z"/>
<path fill="#EEEEEE" opacity="1.000000" stroke="none" 
	d="
M396.067596,626.095032 
	C381.615967,628.959656 368.245056,626.618652 355.241913,621.525391 
	C355.280273,621.092957 355.318665,620.660522 355.357056,620.228088 
	C364.867035,620.816711 374.411407,622.190308 383.877411,621.775391 
	C393.536285,621.352112 403.118134,619.171692 413.560242,617.639282 
	C408.579681,623.241699 402.354401,624.271240 396.067596,626.095032 
z"/>
<path fill="#ECECEC" opacity="1.000000" stroke="none" 
	d="
M408.118347,645.135925 
	C403.141357,649.533203 397.465454,650.178223 391.534851,649.818115 
	C383.811371,649.349060 376.547516,647.283569 370.175140,644.408936 
	C383.848572,643.024597 397.766632,641.615417 412.887604,640.084473 
	C410.940643,642.136658 409.651581,643.495422 408.118347,645.135925 
z"/>
</svg>