<svg width="300" height="400" viewBox="0 0 300 400" fill="none" xmlns="http://www.w3.org/2000/svg">
  <!-- Face -->
  <path d="M150 80c-30 0-55 25-55 55v40c0 35 25 60 55 60s55-25 55-60v-40c0-30-25-55-55-55z" fill="white" stroke="white" stroke-width="3"/>
  
  <!-- Hair -->
  <path d="M100 85c0-25 20-45 50-45s50 20 50 45c0 5-2 10-5 14h-90c-3-4-5-9-5-14z" fill="white" stroke="white" stroke-width="3"/>
  <path d="M110 70c5-8 15-12 25-10 8-8 17-8 25-8 10 0 18 5 22 12 8-2 15 2 18 8-25-15-65-15-90-2z" fill="white"/>
  
  <!-- Eyes -->
  <circle cx="130" cy="120" r="3" fill="black"/>
  <circle cx="170" cy="120" r="3" fill="black"/>
  
  <!-- Eyebrows -->
  <path d="M122 110c8-3 16-3 24 0" stroke="black" stroke-width="2" stroke-linecap="round"/>
  <path d="M162 110c8-3 16-3 24 0" stroke="black" stroke-width="2" stroke-linecap="round"/>
  
  <!-- Nose -->
  <path d="M150 125v15" stroke="black" stroke-width="2" stroke-linecap="round"/>
  <path d="M145 140c3 2 7 2 10 0" stroke="black" stroke-width="2" stroke-linecap="round"/>
  
  <!-- Mouth -->
  <path d="M140 160c5 8 15 8 20 0" stroke="black" stroke-width="3" stroke-linecap="round" fill="none"/>
  <path d="M142 165c3 3 8 3 11 0" fill="black"/>
  
  <!-- Ears -->
  <ellipse cx="95" cy="130" rx="8" ry="15" fill="white" stroke="white" stroke-width="2"/>
  <ellipse cx="205" cy="130" rx="8" ry="15" fill="white" stroke="white" stroke-width="2"/>
  
  <!-- Basketball -->
  <circle cx="220" cy="300" r="40" fill="white" stroke="black" stroke-width="3"/>
  <path d="M180 300h80M220 260v80" stroke="black" stroke-width="2"/>
  <path d="M190 280c15-10 30-10 45 0M190 320c15 10 30 10 45 0" stroke="black" stroke-width="2" fill="none"/>
  
  <!-- Science Flask -->
  <path d="M80 280l20 60c2 6 8 10 15 10h20c7 0 13-4 15-10l20-60v-20h-90v20z" fill="white" stroke="black" stroke-width="3"/>
  <rect x="115" y="250" width="20" height="30" fill="white" stroke="black" stroke-width="3"/>
  <circle cx="125" cy="245" r="8" fill="white" stroke="black" stroke-width="3"/>
  
  <!-- Flask liquid/bubbles -->
  <circle cx="110" cy="320" r="3" fill="black"/>
  <circle cx="125" cy="310" r="2" fill="black"/>
  <circle cx="140" cy="325" r="2" fill="black"/>
</svg> 